<?xml version="1.0" encoding="UTF-8"?>
<svg width="512" height="512" viewBox="0 0 512 512" fill="none" xmlns="http://www.w3.org/2000/svg">
    <!-- Cucumber body - made larger -->
    <path d="M160 140C160 90 210 70 256 70C302 70 352 90 352 140V380C352 430 302 450 256 450C210 450 160 430 160 380V140Z" fill="#43A047"/>
    <path d="M170 150C170 105 215 87.5 256 87.5C297 87.5 342 105 342 150V370C342 415 297 432.5 256 432.5C215 432.5 170 415 170 370V150Z" fill="#4CAF50"/>
    
    <!-- Spots pattern -->
    <g opacity="0.2">
        <circle cx="220" cy="180" r="6" fill="#2E7D32"/>
        <circle cx="240" cy="220" r="5" fill="#2E7D32"/>
        <circle cx="280" cy="200" r="7" fill="#2E7D32"/>
        <circle cx="260" cy="260" r="6" fill="#2E7D32"/>
        <circle cx="230" cy="300" r="5" fill="#2E7D32"/>
        <circle cx="290" cy="280" r="6" fill="#2E7D32"/>
        <circle cx="270" cy="320" r="5" fill="#2E7D32"/>
        <circle cx="250" cy="360" r="6" fill="#2E7D32"/>
        <circle cx="285" cy="340" r="5" fill="#2E7D32"/>
    </g>
    
    <!-- Straw hat -->
    <path d="M130 130C130 130 190 110 256 110C322 110 382 130 382 130C382 130 402 110 402 130C402 150 342 170 256 170C170 170 110 150 110 130C110 110 130 130 130 130Z" fill="#D4B38F"/>
    <path d="M150 120C150 120 200 105 256 105C312 105 362 120 362 120L372 110C372 110 312 95 256 95C200 95 140 110 140 110L150 120Z" fill="#BFA077"/>
    
    <!-- Face -->
    <g>
        <!-- Eyes -->
        <circle cx="230" cy="200" r="14" fill="#2E7D32"/>
        <circle cx="280" cy="200" r="14" fill="#2E7D32"/>
        <!-- Eye highlights -->
        <circle cx="234" cy="196" r="5" fill="white"/>
        <circle cx="284" cy="196" r="5" fill="white"/>
        <!-- Rosy cheeks -->
        <circle cx="215" cy="215" r="12" fill="#E91E63" opacity="0.2"/>
        <circle cx="295" cy="215" r="12" fill="#E91E63" opacity="0.2"/>
        <!-- Smile -->
        <path d="M240 225C240 225 256 235 270 225" stroke="#2E7D32" stroke-width="5" stroke-linecap="round"/>
    </g>
    
    <!-- Leaf -->
    <path d="M310 120C310 120 330 110 345 115C360 120 355 140 345 150C335 160 315 150 310 120Z" fill="#66BB6A"/>
    <path d="M315 125C315 125 330 118 340 122C350 126 346 140 338 147C330 154 318 147 315 125Z" fill="#81C784"/>
</svg> 